<svg xmlns="http://www.w3.org/2000/svg" width="100%" viewBox="0 0 200 200"><path d="M0,100.00016c0,-54.75725 44.38966,-99.14772 99.14732,-99.14772c23.09232,0 44.34091,7.89467 61.19395,21.13279c-12.83439,-7.14687 -27.6155,-11.2179 -43.34748,-11.2179c-49.28183,0 -89.23267,39.95117 -89.23267,89.23283c0,49.28183 39.95084,89.23267 89.23267,89.23267c15.73198,0 30.51309,-4.07112 43.34748,-11.21734c-16.85305,13.23747 -38.10163,21.13206 -61.19395,21.13206c-54.75766,0 -99.14732,-44.38982 -99.14732,-99.1474zM200,100.00016c0,43.80608 -35.51195,79.31795 -79.31803,79.31795c-18.47389,0 -35.47263,-6.31574 -48.9549,-16.90567c10.26728,5.71694 22.09213,8.97385 34.67768,8.97385c39.4252,0 71.38589,-31.96067 71.38589,-71.38612c0,-39.42561 -31.96067,-71.3862 -71.38589,-71.3862c-12.58555,0 -24.41041,3.25715 -34.67768,8.97368c13.48227,-10.58937 30.48102,-16.90542 48.9549,-16.90542c43.80608,0 79.31803,35.51187 79.31803,79.31795zM124.27652,131.33503c-0.2901,0.0967 -0.67689,0.0967 -1.16039,0.0967c-1.54719,0 -2.41748,-0.58019 -3.48117,-2.12738c-1.64389,-2.80428 -1.83728,-5.51185 -2.12738,-12.86099l-0.1934,-3.57787l-0.1934,-2.99768c-0.1934,-4.15806 -0.38679,-8.02602 -0.67689,-11.60389c-0.2901,-1.25709 -0.48349,-1.35379 -1.16039,-1.74058c-0.87029,0 -1.35379,0.48349 -2.03068,1.74058c-5.31845,10.44351 -8.12272,17.79264 -10.54021,27.36586c-0.38679,1.93398 -1.06369,3.09438 -2.03068,3.38447c-0.967,0.38679 -3.77127,0.67689 -5.22175,-1.45049c-0.67689,-1.06369 -1.06369,-2.03068 -1.06369,-2.90098c0,-5.02836 0.1934,-8.89632 0.2901,-11.50719c0.0967,-1.64389 0.1934,-2.90098 0.1934,-3.67457l0.1934,-5.02836c0.58995,-13.30645 0.91324,-22.48054 1.00011,-27.46215c-4.72626,1.29843 -7.70498,2.13866 -9.02614,2.61048l-2.03068,0.58019c-0.2901,0.1934 -0.48349,0.48349 -0.58019,0.87029c-0.0967,0.38679 -0.0967,1.16039 -0.1934,2.22408c-0.0967,1.74058 -0.38679,4.35146 -0.967,7.92933c-0.67689,3.57787 -1.54719,8.41283 -2.80428,14.40817l-2.32078,12.28079c-0.67689,3.86796 -1.06369,7.15574 -1.06369,9.76661c0,0.87029 -0.0967,1.45049 -0.1934,1.93398c-0.38679,0.87029 -2.03068,1.25709 -3.19107,1.25709c-1.25709,0 -2.22408,-0.38679 -2.99768,-1.25709c-1.35379,-1.54719 -2.03068,-3.48117 -2.03068,-5.80195c0,-4.54485 1.25709,-9.86331 2.22408,-14.89167l1.16039,-6.09204c0.2901,-1.54719 0.38679,-2.51417 0.38679,-2.99768c0.2901,-2.12738 0.967,-6.28544 2.03068,-12.47419c0.0967,-0.2901 0.0967,-0.77359 0.0967,-1.35379c0,-0.67689 -0.0967,-1.16039 -0.2901,-1.45049l-11.4105,4.83496c-1.35379,0.58019 -2.51417,0.87029 -3.38447,0.87029c-1.06369,0 -2.03068,-0.38679 -2.90098,-1.25709c-0.87029,-0.87029 -1.25709,-1.83728 -1.64389,-3.48117c-0.0967,-1.06369 0.48349,-1.93398 1.54719,-2.32078c2.22408,-1.06369 4.44816,-2.03068 6.47885,-2.90098l7.34913,-2.90098c7.25244,-2.99768 10.05671,-3.86796 17.40584,-5.51185l4.44816,-0.87029c4.25476,-0.87029 6.18874,-1.16039 10.54021,-1.54719c0.48349,0 1.16039,-0.0967 2.03068,-0.1934c0.87029,-0.0967 1.54719,-0.0967 2.22408,-0.0967c0.77359,0 1.25709,0.2901 1.25709,1.74058c0,0.67689 -0.1934,1.16039 -0.67689,1.64389c-0.85546,0.92678 -1.97371,1.69586 -4.16854,2.46228c-0.38156,5.1954 -0.6682,11.53129 -0.85982,19.10163l-0.1934,7.25244v2.61087l1.25709,-2.22408l1.64389,-2.70757l1.93398,-3.28777c1.06369,-2.03068 2.32078,-4.06136 3.77127,-6.28544c0.967,-1.45049 1.74058,-2.61087 2.32078,-3.38447c0.58019,-0.77359 1.06369,-1.25709 1.35379,-1.54719c0.2901,-0.1934 0.38679,-0.2901 0.48349,-0.38679c0.48349,-0.0967 1.06369,-0.0967 1.93398,-0.0967c2.70757,0 4.15806,0.967 4.64156,3.38447c1.06369,5.31845 1.74058,9.57321 1.93398,12.95768c0,0.87029 0.0967,1.64389 0.77359,1.74058c0.2901,0.0967 0.58019,-0.0967 0.77359,-0.48349c0.1934,-0.2901 0.48349,-1.16039 0.967,-2.41748c1.06369,-4.25476 7.83263,-20.40352 10.54021,-25.33518c0.48349,-0.87029 0.77359,-1.93398 0.87029,-3.09438c0,-1.54719 0.48349,-2.12738 2.32078,-2.22408c2.32078,-0.0967 4.25476,0.58019 4.93166,1.74058c0.1934,0.2901 0.2901,0.58019 0.2901,0.87029c0,0.48349 -0.0967,0.87029 -0.38679,1.16039l-2.80428,5.41515c-6.28544,12.28079 -11.9907,29.00974 -13.05438,40.22684c-0.0967,1.64389 -0.48349,4.83496 -1.25709,9.57321c-0.38679,2.61087 -0.87029,3.28777 -3.28777,3.77127z" fill-rule="evenodd"/></svg>